<svg xmlns="http://www.w3.org/2000/svg" viewBox="0 0 345.45 460.48"><defs><style>.cls-1{isolation:isolate;}.cls-10,.cls-2{fill:#175175;}.cls-2{opacity:0.6;}.cls-3{fill:#e2c49c;}.cls-4{fill:#ffd89f;}.cls-5{fill:#ceb495;}.cls-6{fill:#ffe1b0;}.cls-7{fill:#00d5e5;}.cls-8{fill:#bab1a6;}.cls-9{fill:#918b84;}.cls-10{opacity:0.76;mix-blend-mode:soft-light;}</style></defs><title>Fichier 3diving-suit</title><g class="cls-1"><g id="Calque_2" data-name="Calque 2"><g id="Calque_1-2" data-name="Calque 1"><path class="cls-2" d="M311.92,299.72c-1.79-.19-4.19-.47-7.31-.84a49.16,49.16,0,0,1-9.9-2.26l-3.23-1.34L280,290l-3-2.66,3.55-1.54a3.25,3.25,0,0,0,1.73-4.1l-7.61-20.75a3.24,3.24,0,0,0-4.25-1.92c-1.23.49-2.81,1.11-4.69,1.82l-6.33-7.8a363.49,363.49,0,0,0,16.38-50.16l6.39,1a13.69,13.69,0,0,0,3.56.53c14.69,0,26.61-23.86,26.61-53.3s-11.91-53.3-26.61-53.3a13.77,13.77,0,0,0-3.88.63l-7.13,1.16c-.91-1.89-1.9-3.74-3-5.54-16.24-27-39.18-46.28-70.21-55.33L203,28.4c.05-.28.09-.56.13-.83l.18-1.16h-.08c0-.32.08-.63.08-1C203.35,11.4,184.27,0,160.74,0s-42.6,11.4-42.6,25.46a15.48,15.48,0,0,0,.16,1.87h-.16l1.53,9.41c-34.83,8-60.09,28.12-77.6,57.28-.94,1.57-1.8,3.18-2.61,4.82L36.7,98.4a13.77,13.77,0,0,0-3.88-.63c-14.69,0-26.61,23.86-26.61,53.3s11.91,53.3,26.61,53.3a13.69,13.69,0,0,0,3.56-.53l1.82-.27A364.83,364.83,0,0,0,54.3,252.78l-6.68,6.7-1.56-.69a3.25,3.25,0,0,0-4.34,1.75l-8.09,19.74a3.25,3.25,0,0,0,1.72,4.23c1.24.54,2.88,1.24,4.85,2.07l-2.5,2.21-13,6.06-3.27,1.26a99.35,99.35,0,0,1-10.12,2.3c-2.76.49-5.17.79-7,1A4.73,4.73,0,0,0,0,304.19C2,408,72.62,451.07,158.06,451.31c85.47-.24,156.14-42.92,158.06-146.8A4.74,4.74,0,0,0,311.92,299.72Z"/><path class="cls-3" d="M295,270l-6.33-7.8-.29.69s-33.2,20.57-102.17,20.57C120.33,283.47,84,262.9,84,262.9l-.4-.94-6.68,6.7c14,6.09,58.37,23.37,112.19,23.23C232.81,291.78,277.42,276.67,295,270Z"/><path class="cls-4" d="M186.19,283.47c69,0,102.17-20.57,102.17-20.57l.29-.69A363.5,363.5,0,0,0,305,212.05l-15.52-2.32s-15.64-18.3-13.77-52.38c2-36.33,12-46,12-46L304,108.73c-.91-1.89-1.9-3.74-3-5.54-16.24-27-39.18-46.28-70.21-55.33L229.11,58.7s-12.9,12.11-41.35,11.5c-24.08-.51-36.69-11.46-36.69-11.46L149,45.91c-34.83,8-60.09,28.12-77.6,57.28-.94,1.57-1.8,3.18-2.61,4.82l20.65,3.35s10,9.66,12,46c1.86,34.07-13.77,52.38-13.77,52.38l-20.09,3A364.84,364.84,0,0,0,83.62,262l.4.94S120.33,283.47,186.19,283.47Zm3.88-193.3c42.32,0,76.63,35.61,76.63,79.54s-34.31,79.54-76.63,79.54-76.63-35.61-76.63-79.54S147.74,90.16,190.07,90.16Z"/><path class="cls-5" d="M190.07,249.24c42.32,0,76.63-35.61,76.63-79.54s-34.31-79.54-76.63-79.54-76.63,35.61-76.63,79.54S147.74,249.24,190.07,249.24Zm0-155.56A73.11,73.11,0,1,1,117,166.8,73.11,73.11,0,0,1,190.07,93.68Z"/><path class="cls-6" d="M190.07,239.91A73.11,73.11,0,1,0,117,166.8,73.11,73.11,0,0,0,190.07,239.91Zm-37.54-21.27a6.59,6.59,0,1,1,0-9.32A6.59,6.59,0,0,1,152.53,218.64Zm40.57,18.18a6.59,6.59,0,1,1,6.59-6.59A6.59,6.59,0,0,1,193.1,236.82Zm59.72-78.9a6.59,6.59,0,1,1-6.59,6.59A6.59,6.59,0,0,1,252.82,157.92ZM241.23,214.4a6.59,6.59,0,1,1,0-9.32A6.59,6.59,0,0,1,241.23,214.4Zm-13.56-98a6.59,6.59,0,1,1,0,9.32A6.59,6.59,0,0,1,227.67,116.37ZM187.1,98.2a6.59,6.59,0,1,1-6.59,6.59A6.59,6.59,0,0,1,187.1,98.2ZM190.54,117h0a50.86,50.86,0,0,1,39.26,83.24q-1.56,1.89-3.28,3.61l-.33.3a50.69,50.69,0,0,1-35.65,14.6h0a50.29,50.29,0,0,1-43.74-25q-1.14-1.92-2.11-4c-.53-1.11-1-2.24-1.49-3.39a50.38,50.38,0,0,1,0-37.1c.45-1.16,1-2.28,1.49-3.39q1-2,2.11-4a50.29,50.29,0,0,1,43.74-25ZM127.37,177.1a6.59,6.59,0,1,1,6.59-6.59A6.59,6.59,0,0,1,127.37,177.1ZM139,120.62a6.59,6.59,0,1,1,0,9.32A6.59,6.59,0,0,1,139,120.62Z"/><path class="cls-7" d="M151.29,135.53a51,51,0,0,0-4.48,6.47A51,51,0,0,1,151.29,135.53Z"/><path class="cls-7" d="M143.21,149.34c.45-1.16,1-2.28,1.49-3.39C144.16,147.06,143.66,148.18,143.21,149.34Z"/><path class="cls-7" d="M144.7,189.84c-.53-1.11-1-2.24-1.49-3.39C143.66,187.6,144.16,188.72,144.7,189.84Z"/><path class="cls-7" d="M171.15,164a1.35,1.35,0,0,0,1.91,0l11.76-11.76a1.35,1.35,0,0,0,0-1.91l-20.53-20.53a44.83,44.83,0,0,0-14,13.37Z"/><path class="cls-7" d="M206.42,173.87l-11.76,11.76a1.35,1.35,0,0,0,0,1.91l20.83,20.83a47.93,47.93,0,0,0,14.06-13.26l-21.23-21.23A1.35,1.35,0,0,0,206.42,173.87Z"/><path class="cls-7" d="M151.29,200.25a51,51,0,0,1-4.48-6.47A51,51,0,0,0,151.29,200.25Z"/><path class="cls-7" d="M184.82,185.63l-11.76-11.76a1.35,1.35,0,0,0-1.91,0l-20.28,20.28a48,48,0,0,0,13.72,13.6l20.22-20.22A1.35,1.35,0,0,0,184.82,185.63Z"/><path class="cls-7" d="M167.18,168l-19.75-19.75a44.5,44.5,0,0,0-4.5,19.65,47.25,47.25,0,0,0,5,21.21l19.2-19.2A1.35,1.35,0,0,0,167.18,168Z"/><path class="cls-7" d="M212.3,169.9l20.29,20.28a47.3,47.3,0,0,0,5.57-22.29,44.39,44.39,0,0,0-5-20.71L212.3,168A1.35,1.35,0,0,0,212.3,169.9Z"/><path class="cls-7" d="M188.79,191.51l-19.11,19.11a47.06,47.06,0,0,0,40.66.52l-19.64-19.64A1.35,1.35,0,0,0,188.79,191.51Z"/><path class="cls-7" d="M151.29,200.25a50.77,50.77,0,0,0,39.26,18.52h0A50.77,50.77,0,0,1,151.29,200.25Z"/><rect class="cls-7" x="180.08" y="159.28" width="19.32" height="19.32" rx="1.35" ry="1.35" transform="translate(-63.89 183.65) rotate(-45)"/><path class="cls-7" d="M190.54,117h0a50.77,50.77,0,0,0-39.26,18.52A50.77,50.77,0,0,1,190.54,117Z"/><path class="cls-7" d="M190.69,146.38l19.77-19.77a51.55,51.55,0,0,0-41,.49l19.28,19.28A1.35,1.35,0,0,0,190.69,146.38Z"/><path class="cls-7" d="M194.67,152.26,206.42,164a1.35,1.35,0,0,0,1.91,0l21.8-21.8a45.06,45.06,0,0,0-14.36-13l-21.1,21.1A1.35,1.35,0,0,0,194.67,152.26Z"/><path class="cls-7" d="M229.8,135.53a50.78,50.78,0,0,1,9.33,17.23A50.78,50.78,0,0,0,229.8,135.53Z"/><path class="cls-7" d="M226.52,203.87c-.1.1-.22.2-.33.3Z"/><path class="cls-7" d="M239.14,183a50.78,50.78,0,0,1-9.33,17.23A50.78,50.78,0,0,0,239.14,183Z"/><path class="cls-4" d="M69,365c21.06,39.62,62,61.66,118.42,63.74,56.29-2.08,97.24-24.06,118.31-63.55,16-29.92,15.06-60.48,15-60.77l-11.52-5.29h0c-1.47.83-38.22,20.61-118.78,23.62q-4.73.18-9.37.17c-64,0-113.6-24.72-114.1-25L54,304C54,304.34,53.06,335,69,365ZM266.89,318.2c16.38,0,29.66,13.66,29.66,30.5s-13.28,30.5-29.66,30.5-29.66-13.66-29.66-30.5S250.51,318.2,266.89,318.2Z"/><path class="cls-6" d="M341.24,308.89c-1.79-.19-4.19-.47-7.31-.84a49.16,49.16,0,0,1-9.9-2.26l0,0c0,.48,1.44,48.44-32.58,85.11-23.76,25.61-58.77,39.45-104,41.12-45.31-1.67-80.28-15.5-104-41.11-34.15-36.8-32.71-85.13-32.7-85.62h0a99.36,99.36,0,0,1-10.12,2.3c-2.76.49-5.17.79-7,1a4.73,4.73,0,0,0-4.23,4.79c2,103.8,72.62,146.88,158.06,147.12,85.47-.24,156.14-42.92,158.06-146.8A4.74,4.74,0,0,0,341.24,308.89Z"/><path class="cls-8" d="M252.82,171.09a6.59,6.59,0,1,0-6.59-6.59A6.59,6.59,0,0,0,252.82,171.09Zm-4.58-7.6h3.56v-3.56h2v3.56h3.56v2h-3.56v3.56h-2v-3.56h-3.56Z"/><polygon class="cls-9" points="251.81 169.08 253.84 169.08 253.84 165.52 257.4 165.52 257.4 163.49 253.84 163.49 253.84 159.93 251.81 159.93 251.81 163.49 248.25 163.49 248.25 165.52 251.81 165.52 251.81 169.08"/><path class="cls-8" d="M237,125.69a6.59,6.59,0,1,0-9.32,0A6.59,6.59,0,0,0,237,125.69Zm-8.61-7.18,1.44-1.44,2.52,2.52,2.52-2.52,1.44,1.44L233.77,121l2.52,2.52L234.84,125l-2.52-2.52L229.81,125l-1.44-1.44,2.52-2.52Z"/><polygon class="cls-9" points="229.81 124.99 232.33 122.47 234.84 124.99 236.28 123.55 233.77 121.03 236.28 118.52 234.84 117.08 232.33 119.59 229.81 117.08 228.37 118.52 230.89 121.03 228.37 123.55 229.81 124.99"/><path class="cls-8" d="M187.1,111.37a6.59,6.59,0,1,0-6.59-6.59A6.59,6.59,0,0,0,187.1,111.37Zm-4.58-7.6h3.56v-3.56h2v3.56h3.56v2h-3.56v3.56h-2V105.8h-3.56Z"/><polygon class="cls-9" points="186.08 109.36 188.11 109.36 188.11 105.8 191.67 105.8 191.67 103.77 188.11 103.77 188.11 100.21 186.08 100.21 186.08 103.77 182.52 103.77 182.52 105.8 186.08 105.8 186.08 109.36"/><path class="cls-8" d="M148.28,129.94a6.59,6.59,0,1,0-9.32,0A6.59,6.59,0,0,0,148.28,129.94Zm-8.61-7.18,1.44-1.44,2.52,2.52,2.52-2.52,1.44,1.44-2.52,2.52,2.52,2.52-1.44,1.44-2.52-2.52-2.52,2.52-1.44-1.44,2.52-2.52Z"/><polygon class="cls-9" points="141.1 129.24 143.62 126.72 146.14 129.24 147.58 127.8 145.06 125.28 147.58 122.76 146.14 121.32 143.62 123.84 141.1 121.32 139.67 122.76 142.18 125.28 139.67 127.8 141.1 129.24"/><path class="cls-8" d="M127.37,163.92a6.59,6.59,0,1,0,6.59,6.59A6.59,6.59,0,0,0,127.37,163.92Zm4.58,7.6h-3.56v3.56h-2v-3.56H122.8v-2h3.56v-3.56h2v3.56H132Z"/><polygon class="cls-9" points="128.39 165.93 126.36 165.93 126.36 169.49 122.8 169.49 122.8 171.53 126.36 171.53 126.36 175.09 128.39 175.09 128.39 171.53 131.95 171.53 131.95 169.49 128.39 169.49 128.39 165.93"/><path class="cls-8" d="M143.21,209.33a6.59,6.59,0,1,0,9.32,0A6.59,6.59,0,0,0,143.21,209.33Zm8.61,7.18-1.44,1.44-2.52-2.52-2.52,2.52-1.44-1.44,2.52-2.52-2.52-2.52,1.44-1.44,2.52,2.52,2.52-2.52,1.44,1.44L149.31,214Z"/><polygon class="cls-9" points="150.39 210.03 147.87 212.55 145.35 210.03 143.91 211.47 146.43 213.98 143.91 216.5 145.35 217.94 147.87 215.42 150.39 217.94 151.82 216.5 149.31 213.98 151.82 211.47 150.39 210.03"/><path class="cls-8" d="M193.1,223.64a6.59,6.59,0,1,0,6.59,6.59A6.59,6.59,0,0,0,193.1,223.64Zm4.58,7.6h-3.56v3.56h-2v-3.56h-3.56v-2h3.56v-3.56h2v3.56h3.56Z"/><polygon class="cls-9" points="194.12 225.66 192.09 225.66 192.09 229.22 188.52 229.22 188.52 231.25 192.09 231.25 192.09 234.81 194.12 234.81 194.12 231.25 197.68 231.25 197.68 229.22 194.12 229.22 194.12 225.66"/><path class="cls-8" d="M231.92,205.08a6.59,6.59,0,1,0,9.32,0A6.59,6.59,0,0,0,231.92,205.08Zm8.61,7.18-1.44,1.44-2.52-2.52-2.52,2.52-1.44-1.44,2.52-2.52-2.52-2.52,1.44-1.44,2.52,2.52,2.52-2.52,1.44,1.44L238,209.74Z"/><polygon class="cls-9" points="239.09 205.78 236.57 208.3 234.06 205.78 232.62 207.22 235.14 209.74 232.62 212.25 234.06 213.69 236.57 211.18 239.09 213.69 240.53 212.25 238.01 209.74 240.53 207.22 239.09 205.78"/><path class="cls-6" d="M184.82,152.26,173.06,164a1.35,1.35,0,0,1-1.91,0l-20.82-20.82a43.19,43.19,0,0,0-2.89,5.05L167.18,168a1.35,1.35,0,0,1,0,1.91L148,189.1a47.61,47.61,0,0,0,2.89,5.06l20.28-20.28a1.35,1.35,0,0,1,1.91,0l11.76,11.76a1.35,1.35,0,0,1,0,1.91l-20.22,20.22a47.58,47.58,0,0,0,5.08,2.86l19.11-19.11a1.35,1.35,0,0,1,1.91,0l19.64,19.64a47.5,47.5,0,0,0,5.17-2.78l-20.83-20.83a1.35,1.35,0,0,1,0-1.91l11.76-11.76a1.35,1.35,0,0,1,1.91,0l21.23,21.23a47.65,47.65,0,0,0,3-4.92L212.3,169.9a1.35,1.35,0,0,1,0-1.91l20.81-20.81a43.36,43.36,0,0,0-3-5L208.33,164a1.35,1.35,0,0,1-1.91,0l-11.76-11.76a1.35,1.35,0,0,1,0-1.91l21.1-21.1a47.84,47.84,0,0,0-5.31-2.64l-19.77,19.77a1.35,1.35,0,0,1-1.91,0L169.51,127.1a47.68,47.68,0,0,0-5.22,2.72l20.53,20.53A1.35,1.35,0,0,1,184.82,152.26Zm5.88,4L202.45,168a1.35,1.35,0,0,1,0,1.91l-11.76,11.76a1.35,1.35,0,0,1-1.91,0L177,169.9a1.35,1.35,0,0,1,0-1.91l11.76-11.76A1.35,1.35,0,0,1,190.69,156.23Z"/><path class="cls-5" d="M144.7,145.94c-.53,1.11-1,2.24-1.49,3.39a50.38,50.38,0,0,0,0,37.1c.45,1.16,1,2.28,1.49,3.39q1,2,2.11,4a50.29,50.29,0,0,0,43.74,25h0a50.69,50.69,0,0,0,35.65-14.6c.11-.1.22-.19.33-.3q1.73-1.73,3.28-3.61A50.88,50.88,0,0,0,190.54,117h0a50.29,50.29,0,0,0-43.74,25Q145.67,143.92,144.7,145.94Zm19.59-16.12a47.68,47.68,0,0,1,5.22-2.72,51.55,51.55,0,0,1,41-.49,47.84,47.84,0,0,1,5.31,2.64,45.06,45.06,0,0,1,14.36,13,43.36,43.36,0,0,1,3,5,44.39,44.39,0,0,1,5,20.71,47.21,47.21,0,0,1-8.6,27.21,48.24,48.24,0,0,1-19.23,16,47.81,47.81,0,0,1-45.74-3.39A46.74,46.74,0,0,1,148,189.1a47.25,47.25,0,0,1-5-21.21,44.5,44.5,0,0,1,4.5-19.65,43.19,43.19,0,0,1,2.89-5.05A44.83,44.83,0,0,1,164.29,129.83Z"/><path class="cls-3" d="M266.89,379.2c16.38,0,29.66-13.66,29.66-30.5s-13.28-30.5-29.66-30.5-29.66,13.66-29.66,30.5S250.51,379.2,266.89,379.2Zm0-59.11a27.34,27.34,0,1,1-27.34,27.34A27.34,27.34,0,0,1,266.89,320.08Z"/><path class="cls-6" d="M266.89,374.76a27.34,27.34,0,1,0-27.34-27.34A27.34,27.34,0,0,0,266.89,374.76Zm0-45.54c5.6,0,9.45,4.11,9,10.55a50.68,50.68,0,0,1-2,10.66s-1.91,3.29-7,3.29a7.84,7.84,0,0,1-7-3.7,46,46,0,0,1-1.85-10.4C257.68,333.5,260.92,329.22,266.89,329.22Z"/><path class="cls-3" d="M266.89,353.72c5.05,0,7-3.29,7-3.29a50.68,50.68,0,0,0,2-10.66c.49-6.44-3.36-10.55-9-10.55-6,0-9.22,4.28-8.82,10.41a46,46,0,0,0,1.85,10.4A7.84,7.84,0,0,0,266.89,353.72Zm.07-23.78a8,8,0,1,1-8,8A8,8,0,0,1,267,329.94Z"/><circle class="cls-6" cx="266.96" cy="337.94" r="8"/><path class="cls-5" d="M232.67,35.59h-.08c0,.39,0,.77-.1,1.15Z"/><path class="cls-5" d="M187.76,70.19c28.44.61,41.35-11.5,41.35-11.5l1.67-10.83,1.58-10.29c-2.44,12.67-20.44,22.52-42.3,22.52-22.47,0-40.84-10.41-42.45-23.59L149,45.91l2.08,12.82S163.69,69.68,187.76,70.19Z"/><path class="cls-6" d="M190.07,60.1c21.86,0,39.85-9.85,42.3-22.52.05-.28.09-.56.13-.83s.07-.77.1-1.15.08-.63.08-1c0-14.06-19.08-25.46-42.6-25.46s-42.6,11.4-42.6,25.46a15.49,15.49,0,0,0,.16,1.87C149.23,49.69,167.59,60.1,190.07,60.1Zm-35-26.56s0-.09,0-.13,0-.06,0-.09c0-9.76,15.65-17.7,34.93-17.71h0c19.32,0,34.95,7.94,34.95,17.71,0,0,0,.06,0,.09s0,.09,0,.13c0,9.9-15.65,17.93-35,17.93S155.11,43.44,155.11,33.54Z"/><path class="cls-7" d="M190.07,15.61h0Z"/><path class="cls-7" d="M190.07,51.47c19.3,0,35-8,35-17.93,0,0,0-.09,0-.13a8.15,8.15,0,0,1-.1,1.22c-1.33-9.17-16.41-16.35-34.84-16.35s-33.51,7.18-34.84,16.35c-.07-.39,0,0,0,0C155.23,44.54,170.76,51.47,190.07,51.47Z"/><path class="cls-5" d="M190.07,18.28c18.43,0,33.51,7.18,34.84,16.35a8.15,8.15,0,0,0,.1-1.22s0-.06,0-.09c0-9.77-15.62-17.71-34.95-17.71h0c-19.28,0-34.93,7.94-34.93,17.71,0,0,0,.06,0,.09a8,8,0,0,0,.1,1.22C156.56,25.46,171.68,18.28,190.07,18.28Z"/><path class="cls-5" d="M101.38,157.36c-2-36.33-12-46-12-46L68.77,108,66,107.57c12.85,3.78,22.72,25.88,22.72,52.67,0,27-10,49.28-23,52.77l1.82-.27,20.09-3S103.24,191.43,101.38,157.36Z"/><path class="cls-6" d="M88.74,160.24c0-26.79-9.87-48.89-22.72-52.67a13.77,13.77,0,0,0-3.88-.63c-14.69,0-26.61,23.86-26.61,53.3s11.91,53.3,26.61,53.3a13.69,13.69,0,0,0,3.56-.53C78.7,209.52,88.74,187.25,88.74,160.24ZM61.3,203.93c-.1,0-.21,0-.31,0-10.35,0-18.74-19.58-18.74-43.73A98.75,98.75,0,0,1,43,147.74c0-.17,0-.34.06-.51.09-.71.22-1.39.33-2.08s.19-1.31.3-1.94c.06-.33.14-.64.2-1,.19-1,.37-1.93.59-2.86,0-.13.07-.25.1-.38,3.2-13.41,9.33-22.5,16.38-22.5.1,0,.21,0,.31,0a7.12,7.12,0,0,1,1.08.1l-.06,0c9.72,1.6,17.4,20.47,17.4,43.57s-7.68,42-17.4,43.57l.06,0A7.25,7.25,0,0,1,61.3,203.93Z"/><path class="cls-7" d="M61,116.52l.31,0c-.1,0-.2,0-.31,0-7,0-13.18,9.09-16.38,22.5C47.82,125.59,54,116.52,61,116.52Z"/><path class="cls-7" d="M42.25,160.24C42.25,184.39,50.64,204,61,204c.11,0,.21,0,.31,0L61,204C50.66,204,42.25,184.37,42.25,160.24Z"/><path class="cls-7" d="M45.08,160.24c0,23,7.57,41.84,17.24,43.57,9.72-1.6,17.4-20.47,17.4-43.57s-7.68-42-17.4-43.57C52.65,118.4,45.08,137.23,45.08,160.24Z"/><path class="cls-7" d="M43,147.74c0-.17,0-.34.06-.51C43.07,147.4,43.06,147.58,43,147.74Z"/><path class="cls-7" d="M43.42,145.15c.1-.65.19-1.31.3-1.94C43.61,143.84,43.52,144.5,43.42,145.15Z"/><path class="cls-7" d="M43.93,142.25c.19-1,.37-1.93.59-2.86C44.3,140.31,44.11,141.28,43.93,142.25Z"/><path class="cls-5" d="M62.33,203.81c-9.68-1.73-17.24-20.61-17.24-43.57s7.57-41.84,17.24-43.57l.06,0a7.12,7.12,0,0,0-1.08-.1l-.31,0c-7,0-13.17,9.08-16.38,22.49,0,.13-.07.25-.1.38-.22.93-.4,1.89-.59,2.86-.06.33-.14.64-.2,1-.11.63-.2,1.29-.3,1.94s-.23,1.37-.33,2.08c0,.17,0,.34-.06.51a98.75,98.75,0,0,0-.79,12.49C42.25,184.37,50.66,204,61,204l.31,0a7.25,7.25,0,0,0,1.08-.1Z"/><path class="cls-5" d="M275.74,157.36c-1.86,34.07,13.77,52.38,13.77,52.38L305,212.05l6.39,1c-13-3.49-23-25.75-23-52.77,0-26.79,9.87-48.89,22.72-52.67L304,108.73l-16.27,2.64S277.72,121,275.74,157.36Z"/><path class="cls-6" d="M288.37,160.24c0,27,10,49.28,23,52.77a13.69,13.69,0,0,0,3.56.53c14.69,0,26.61-23.86,26.61-53.3s-11.91-53.3-26.61-53.3a13.77,13.77,0,0,0-3.88.63C298.24,111.35,288.37,133.45,288.37,160.24Zm26.36-43.59a7.1,7.1,0,0,1,1.08-.1c.1,0,.2,0,.31,0,7,0,13.18,9.09,16.38,22.5,0,.13.07.25.1.38.22.93.4,1.89.59,2.86.06.33.14.64.2,1,.11.63.2,1.29.3,1.94s.23,1.37.33,2.08c0,.17,0,.34.06.51a98.75,98.75,0,0,1,.79,12.49c0,24.15-8.39,43.73-18.74,43.73-.11,0-.21,0-.31,0a7.22,7.22,0,0,1-1.08-.1l.06,0c-9.72-1.6-17.4-20.47-17.4-43.57s7.68-42,17.4-43.57Z"/><path class="cls-7" d="M334,147.23c0,.17,0,.34.06.51C334.05,147.58,334,147.4,334,147.23Z"/><path class="cls-7" d="M332.6,139.39c.22.93.4,1.89.59,2.86C333,141.28,332.81,140.31,332.6,139.39Z"/><path class="cls-7" d="M316.12,204l-.31,0c.11,0,.21,0,.31,0,10.35,0,18.74-19.58,18.74-43.73C334.86,184.37,326.46,204,316.12,204Z"/><path class="cls-7" d="M332.5,139c-3.2-13.41-9.33-22.5-16.38-22.5-.11,0-.21,0-.31,0l.31,0C323.16,116.52,329.3,125.59,332.5,139Z"/><path class="cls-7" d="M333.39,143.21c.11.63.2,1.29.3,1.94C333.59,144.5,333.5,143.84,333.39,143.21Z"/><path class="cls-7" d="M297.38,160.24c0,23.1,7.68,42,17.4,43.57,9.68-1.73,17.24-20.61,17.24-43.57s-7.57-41.84-17.24-43.57C305.06,118.27,297.38,137.14,297.38,160.24Z"/><path class="cls-5" d="M332,160.24c0,23-7.57,41.84-17.24,43.57l-.06,0a7.22,7.22,0,0,0,1.08.1l.31,0c10.33,0,18.74-19.59,18.74-43.72a98.75,98.75,0,0,0-.79-12.49c0-.17,0-.34-.06-.51-.09-.71-.22-1.39-.33-2.08s-.19-1.31-.3-1.94c-.06-.33-.14-.64-.2-1-.19-1-.37-1.93-.59-2.86,0-.13-.07-.25-.1-.38-3.2-13.42-9.34-22.49-16.38-22.49l-.31,0a7.1,7.1,0,0,0-1.08.1l.06,0C324.46,118.4,332,137.23,332,160.24Z"/><path class="cls-3" d="M190.5,322.78c80.56-3,117.31-22.79,118.78-23.62h0l-3-2.66c-14.41,6.16-53.59,21.23-116.18,23.59-53.8,2-102.24-16.62-120.55-24.32L67,298h0c.5.26,50.11,25,114.1,25Q185.76,322.95,190.5,322.78Z"/><path class="cls-6" d="M190.07,320.08c62.59-2.35,101.77-17.43,116.18-23.59l3.55-1.54a3.25,3.25,0,0,0,1.73-4.1l-7.61-20.75a3.24,3.24,0,0,0-4.25-1.92c-1.23.49-2.81,1.11-4.69,1.82-17.55,6.66-62.17,21.77-105.84,21.88-53.82.13-98.21-17.14-112.19-23.23L75.38,268A3.25,3.25,0,0,0,71,269.72L63,289.46a3.25,3.25,0,0,0,1.72,4.23c1.24.54,2.88,1.24,4.85,2.07C87.83,303.46,136.27,322.11,190.07,320.08Zm-5.55-7.9q-1.69,0-3.38-.05l.31-13.05,3.15,0Zm-9.41-13.35-.73,13-3.34-.21.87-13Zm-9.53-.71-1.22,13-3.35-.34,1.42-13ZM156.1,297,154.38,310l-3.29-.45,1.85-12.92Zm-9.47-1.41-2.14,12.88-3.26-.55,2.23-12.87Zm-9.48-1.7-2.47,12.82-3.27-.65,2.61-12.8Zm-9.43-2-2.8,12.75-3.25-.73,2.93-12.73Zm-9.37-2.19-3.16,12.67-3.2-.8L115.21,289ZM109,287.37,105.57,300l-3.2-.88,3.51-12.58Zm-9.27-2.62L96,297.26l-3.15-.95,3.79-12.5ZM87.4,280.91l3.07,1-4,12.43-3.16-1ZM289.3,295l-4-12.43,3.07-1L292.44,294Zm-98.37,4,3.17-.1.5,13.05-3.36.1Zm9.56-.39,3.22-.2.85,13-3.3.21Zm9.56-.71,3.19-.3,1.31,13-3.32.32Zm9.56-1,3.17-.4,1.69,12.95-3.31.41Zm9.52-1.28,3.15-.49,2.08,12.89-3.3.51Zm9.5-1.56,3.13-.57,2.44,12.83-3.29.6Zm9.45-1.81,3.13-.65L254,304.42l-3.26.69Zm9.4-2.06,3.13-.75,3.07,12.69-3.23.77Zm9.35-2.3,3.1-.83,3.4,12.61-3.21.85Zm9.28-2.55,3.1-.91L282.91,297l-3.18.93ZM302,290.5l-3.22,1.29-4.47-12.27,2.87-1.07ZM78.38,277.77s1.07.4,3,1.07L77,291.15c-2.09-.74-3.22-1.16-3.22-1.16Z"/><polygon class="cls-3" points="144.49 308.51 146.63 295.64 143.45 295.1 141.22 307.96 144.49 308.51"/><polygon class="cls-3" points="95.97 297.26 99.72 284.75 96.61 283.81 92.82 296.31 95.97 297.26"/><polygon class="cls-3" points="90.47 281.9 87.4 280.91 83.32 293.31 86.48 294.33 90.47 281.9"/><polygon class="cls-3" points="105.57 299.97 108.98 287.37 105.88 286.51 102.37 299.09 105.57 299.97"/><polygon class="cls-3" points="115.19 302.46 118.35 289.79 115.21 289 111.99 301.66 115.19 302.46"/><path class="cls-3" d="M213.24,297.66l-3.19.3,1.18,13,3.32-.32Z"/><polygon class="cls-3" points="285.3 282.59 289.3 295.02 292.44 294 288.37 281.59 285.3 282.59"/><path class="cls-3" d="M194.1,299l-3.17.1.31,13.05,3.36-.1Z"/><polygon class="cls-3" points="203.7 298.47 200.49 298.67 201.25 311.71 204.55 311.5 203.7 298.47"/><path class="cls-3" d="M174.39,311.88l.73-13-3.19-.19-.87,13Z"/><path class="cls-3" d="M181.14,312.14q1.69,0,3.38.05l.08-13.06-3.15,0Z"/><path class="cls-3" d="M164.36,311.12l1.22-13-3.15-.32-1.42,13Z"/><path class="cls-3" d="M124.92,304.73l2.8-12.75-3.12-.7L121.66,304Z"/><path class="cls-3" d="M154.38,310,156.1,297l-3.16-.43-1.85,12.92Z"/><path class="cls-3" d="M134.67,306.76l2.47-12.82-3.13-.62-2.61,12.8Z"/><path class="cls-3" d="M251.21,291.65l-3.13.65,2.61,12.8,3.26-.69Z"/><polygon class="cls-3" points="279.2 284.49 276.11 285.39 279.73 297.94 282.91 297 279.2 284.49"/><polygon class="cls-3" points="269.93 287.12 266.83 287.94 270.12 300.58 273.33 299.73 269.93 287.12"/><polygon class="cls-3" points="298.82 291.78 302.04 290.5 297.22 278.44 294.35 279.52 298.82 291.78"/><path class="cls-3" d="M81.34,278.84c-1.89-.67-2.93-1.06-3-1.07L73.78,290s1.13.42,3.22,1.16Z"/><path class="cls-3" d="M222.78,296.56l-3.17.4,1.56,13,3.31-.41Z"/><path class="cls-3" d="M241.76,293.55l-3.13.57L240.9,307l3.29-.6Z"/><path class="cls-3" d="M232.28,295.18l-3.15.49,1.94,12.91,3.3-.51Z"/><polygon class="cls-3" points="260.61 289.5 257.47 290.25 260.44 302.96 263.67 302.2 260.61 289.5"/><path class="cls-3" d="M83.41,390.92c23.76,25.61,58.72,39.44,104,41.11,45.27-1.67,80.28-15.51,104-41.12,34-36.67,32.6-84.63,32.58-85.11l0,0-3.23-1.34h0c0,.3.92,30.85-15,60.77-21.07,39.5-62,61.47-118.31,63.55C131,426.69,90.09,404.65,69,365c-16-30-15-60.69-15-61h0l-3.27,1.26h0C50.69,305.79,49.26,354.12,83.41,390.92Z"/><path class="cls-10" d="M155.23,34.63c0,9,12.9,15.58,29.79,16.68V93.86a73.11,73.11,0,0,0,0,145.87V460.46c-84.37-1-153.73-44.26-155.69-147.09a4.72,4.72,0,0,1,4.24-4.79c1.87-.19,4.28-.49,7-1a98.5,98.5,0,0,0,10.12-2.3L54,304,67,298l2.5-2.22c-2-.83-3.61-1.53-4.85-2.07A3.25,3.25,0,0,1,63,289.46L71,269.72A3.25,3.25,0,0,1,75.39,268l1.56.69,6.68-6.7a364.21,364.21,0,0,1-16.11-49.22L65.7,213a13.88,13.88,0,0,1-3.56.53c-14.69,0-26.6-23.86-26.6-53.3s11.91-53.3,26.6-53.3a13.88,13.88,0,0,1,3.89.63l2.75.45c.82-1.64,1.67-3.26,2.61-4.83C88.91,74,114.17,53.94,149,45.92l-1.37-9.42a14.29,14.29,0,0,1-.16-1.86c0-13,16.4-23.79,37.55-25.28v9.1C169,19.64,156.44,26.31,155.23,34.63Z"/></g></g></g></svg>